<?xml version="1.0"?>
<svg xmlns="http://www.w3.org/2000/svg" width="512" height="512" viewBox="0 0 128 128"><g><path d="M121.693,22.094H85.05V6.307a1.749,1.749,0,0,0-1.75-1.75H44.7a1.749,1.749,0,0,0-1.75,1.75v7.018H6.307a1.75,1.75,0,0,0-1.75,1.75v97.85a1.75,1.75,0,0,0,1.75,1.75H44.7a1.75,1.75,0,0,0,1.75-1.75v-7.019h35.1v15.787a1.749,1.749,0,0,0,1.75,1.75h38.393a1.749,1.749,0,0,0,1.75-1.75V23.844A1.75,1.75,0,0,0,121.693,22.094ZM42.95,111.175H21.2V95.387a1.75,1.75,0,0,0-3.5,0v15.788H8.057V16.825H17.7V27.948a1.75,1.75,0,0,0,3.5,0V16.825h9.052V68.06a1.75,1.75,0,0,0,3.5,0V16.825h9.2v94.35ZM46.45,8.057h9.134V27.948a1.75,1.75,0,1,0,3.5,0V8.057h9.832V45.526a1.75,1.75,0,1,0,3.5,0V8.057H81.55v94.349H59.084V66a1.75,1.75,0,0,0-3.5,0v36.4H46.45Zm73.493,111.886H98.2V104.156a1.75,1.75,0,0,0-3.5,0v15.787H85.05V25.594h22.2V47.725a1.75,1.75,0,1,0,3.5,0V25.594h9.2Z"/><path d="M57.334,50.406a1.75,1.75,0,0,0,1.75-1.75V39.887a1.75,1.75,0,0,0-3.5,0v8.769A1.75,1.75,0,0,0,57.334,50.406Z"/><path d="M70.666,74.519a1.75,1.75,0,0,0,1.75-1.75V55.635a1.75,1.75,0,1,0-3.5,0V72.769A1.75,1.75,0,0,0,70.666,74.519Z"/><path d="M70.666,93.279a1.749,1.749,0,0,0,1.75-1.75V84.676a1.75,1.75,0,1,0-3.5,0v6.853A1.749,1.749,0,0,0,70.666,93.279Z"/><path d="M96.445,34.308a1.751,1.751,0,0,0-1.75,1.75V72.769a1.75,1.75,0,0,0,3.5,0V36.058A1.75,1.75,0,0,0,96.445,34.308Z"/><path d="M109,59.9a1.75,1.75,0,0,0-1.75,1.75v48.492a1.75,1.75,0,0,0,3.5,0V61.653A1.75,1.75,0,0,0,109,59.9Z"/><path d="M96.445,87.7a1.751,1.751,0,0,0-1.75,1.75v4.709a1.75,1.75,0,0,0,3.5,0V89.45A1.75,1.75,0,0,0,96.445,87.7Z"/><path d="M19.445,40.631a1.751,1.751,0,0,0-1.75,1.75V78.072a1.75,1.75,0,0,0,3.5,0V42.381A1.75,1.75,0,0,0,19.445,40.631Z"/><path d="M32,84.149a1.75,1.75,0,0,0-1.75,1.75v8.769a1.75,1.75,0,0,0,3.5,0V85.9A1.75,1.75,0,0,0,32,84.149Z"/></g></svg>
