<?xml version="1.0" encoding="iso-8859-1"?>
<!-- Generator: Adobe Illustrator 19.0.0, SVG Export Plug-In . SVG Version: 6.00 Build 0)  -->
<svg version="1.1" id="Capa_1" xmlns="http://www.w3.org/2000/svg" xmlns:xlink="http://www.w3.org/1999/xlink" x="0px" y="0px"
	 viewBox="0 0 480.05 480.05" style="enable-background:new 0 0 480.05 480.05;" xml:space="preserve">
<g>
	<path style="fill:#D1D3D4;" d="M261.29,197.602c-2.4,0.552-4.888,0.992-7.376,1.352C256.41,198.594,258.866,198.154,261.29,197.602
		z"/>
	<path style="fill:#D1D3D4;" d="M240.026,200.05c-3.577-0.018-7.15-0.232-10.704-0.64
		C232.875,199.818,236.449,200.032,240.026,200.05z"/>
	<path style="fill:#D1D3D4;" d="M215.466,196.85c-2.624-0.696-5.2-1.512-7.736-2.4C210.266,195.306,212.826,196.122,215.466,196.85z
		"/>
	<path style="fill:#D1D3D4;" d="M250.738,199.41c-3.556,0.408-7.132,0.621-10.712,0.64
		C243.605,200.032,247.181,199.818,250.738,199.41z"/>
	<path style="fill:#D1D3D4;" d="M226.13,198.954c-2.488-0.36-4.944-0.8-7.36-1.352C221.186,198.154,223.642,198.594,226.13,198.954z
		"/>
	<path style="fill:#D1D3D4;" d="M272.306,194.402c-2.528,0.912-5.101,1.712-7.72,2.4C267.21,196.12,269.783,195.32,272.306,194.402z
		"/>
	<path style="fill:#D1D3D4;" d="M215.466,196.85c1.088,0.288,2.192,0.536,3.304,0.8c2.4,0.552,4.872,0.992,7.36,1.352
		c1.064,0.152,2.12,0.336,3.2,0.456c7.113,0.853,14.303,0.853,21.416,0c1.072-0.12,2.12-0.304,3.2-0.456
		c2.488-0.36,4.952-0.8,7.376-1.352c1.104-0.248,2.208-0.496,3.296-0.8c2.624-0.699,5.197-1.499,7.72-2.4
		c0.704-0.256,1.432-0.456,2.136-0.728c3.356-1.286,6.636-2.763,9.824-4.424c46.977-24.39,65.287-82.244,40.897-129.221
		S242.951-5.21,195.974,19.18s-65.287,82.244-40.897,129.221c10.769,20.742,28.746,36.834,50.549,45.249
		c0.696,0.264,1.416,0.464,2.112,0.72C210.266,195.306,212.826,196.122,215.466,196.85L215.466,196.85z"/>
</g>
<path style="fill:#BCBEC0;" d="M296.426,192.53c-7.029-2.118-14.569-1.785-21.384,0.944c-0.2,0.072-0.408,0.128-0.6,0.2
	c-0.704,0.272-1.432,0.472-2.136,0.728c-2.528,0.912-5.101,1.712-7.72,2.4c-1.088,0.288-2.192,0.536-3.296,0.8
	c-2.4,0.552-4.88,0.992-7.376,1.352c-1.056,0.152-2.104,0.336-3.2,0.456c-7.113,0.853-14.303,0.853-21.416,0
	c-1.072-0.12-2.128-0.304-3.2-0.456c-2.488-0.36-4.944-0.8-7.36-1.352c-1.112-0.248-2.208-0.496-3.304-0.8
	c-2.624-0.696-5.2-1.512-7.736-2.4c-0.696-0.256-1.416-0.456-2.112-0.72c-0.192-0.08-0.4-0.128-0.592-0.208
	c-6.844-2.729-14.412-3.054-21.464-0.92C102.985,217.352,48.027,291.775,48.026,376.05v64c0,17.673,14.327,32,32,32h320
	c17.673,0,32-14.327,32-32v-64C432.022,291.74,377.017,217.296,296.426,192.53z"/>
<g>
	<path style="fill:#D1D3D4;" d="M274.426,193.65c-0.704,0.272-1.432,0.472-2.136,0.728
		C273.01,194.146,273.738,193.946,274.426,193.65z"/>
	<path style="fill:#D1D3D4;" d="M253.914,198.954c-1.056,0.152-2.104,0.336-3.2,0.456
		C251.81,199.29,252.826,199.106,253.914,198.954z"/>
	<path style="fill:#D1D3D4;" d="M205.626,193.65c0.696,0.264,1.416,0.464,2.112,0.72
		C207.034,194.146,206.314,193.946,205.626,193.65z"/>
	<path style="fill:#D1D3D4;" d="M264.586,196.85c-1.088,0.288-2.192,0.536-3.296,0.8
		C262.426,197.354,263.498,197.106,264.586,196.85z"/>
	<path style="fill:#D1D3D4;" d="M218.77,197.602c-1.112-0.248-2.216-0.496-3.304-0.8
		C216.562,197.106,217.626,197.354,218.77,197.602z"/>
	<path style="fill:#D1D3D4;" d="M229.322,199.41c-1.072-0.12-2.128-0.304-3.2-0.456C227.226,199.106,228.25,199.29,229.322,199.41z"
		/>
</g>
<path style="fill:#6D6E71;" d="M381.434,234.626c-21.948-21.852-48.648-38.339-78.016-48.176
	c45.533-35.012,54.063-100.306,19.051-145.839S222.163-13.451,176.63,21.56s-54.063,100.306-19.051,145.839
	c5.511,7.167,11.933,13.585,19.103,19.091C94.861,213.382,39.68,289.924,40.026,376.05v64c0.026,22.08,17.92,39.974,40,40h320
	c22.08-0.026,39.974-17.92,40-40v-64C440.132,322.983,419.039,272.07,381.434,234.626z M152.026,104.05
	c0.004-48.601,39.407-87.996,88.008-87.992c48.601,0.004,87.996,39.407,87.992,88.008c-0.003,32.855-18.308,62.973-47.472,78.104
	c-3.02,1.571-6.132,2.958-9.32,4.152c-0.456,0.176-0.928,0.304-1.384,0.472c-2.667,0.949-5.355,1.771-8.064,2.464
	c-0.704,0.176-1.408,0.336-2.112,0.496c-2.624,0.592-5.264,1.064-7.92,1.416c-0.624,0.08-1.248,0.184-1.872,0.256
	c-6.551,0.724-13.161,0.724-19.712,0c-0.616-0.072-1.224-0.176-1.84-0.256c-2.667-0.352-5.333-0.827-8-1.424
	c-0.696-0.152-1.392-0.312-2.08-0.488c-2.744-0.691-5.451-1.518-8.112-2.48c-0.456-0.16-0.92-0.288-1.368-0.456
	c-3.194-1.203-6.315-2.595-9.344-4.168C170.233,167.064,151.935,136.912,152.026,104.05L152.026,104.05z M424.026,440.05
	c0,13.255-10.745,24-24,24h-320c-13.255,0-24-10.745-24-24v-64c-0.353-80.882,52.462-152.392,129.872-175.84
	c2.271-0.693,4.633-1.044,7.008-1.04c3.146,0.003,6.264,0.595,9.192,1.744c0.216,0.088,0.44,0.144,0.656,0.224
	c1.088,0.424,2.216,0.744,3.312,1.128c2.4,0.8,4.8,1.6,7.2,2.232c1.552,0.408,3.12,0.76,4.696,1.104
	c2.088,0.448,4.192,0.8,6.312,1.136c1.6,0.24,3.2,0.504,4.864,0.672c2.816,0.296,5.648,0.432,8.488,0.496c0.8,0,1.6,0.144,2.4,0.144
	c0.8,0,1.6-0.128,2.448-0.144c2.816-0.064,5.6-0.208,8.424-0.496c1.656-0.168,3.28-0.432,4.92-0.68
	c2.096-0.312,4.184-0.68,6.256-1.128c1.6-0.336,3.152-0.688,4.704-1.104c2.48-0.656,4.92-1.432,7.336-2.272
	c1.04-0.36,2.096-0.664,3.12-1.056c0.24-0.096,0.504-0.16,0.744-0.256c5.135-2.05,10.811-2.309,16.112-0.736
	c77.227,23.739,129.933,95.079,129.936,175.872L424.026,440.05z"/>
<g>
</g>
<g>
</g>
<g>
</g>
<g>
</g>
<g>
</g>
<g>
</g>
<g>
</g>
<g>
</g>
<g>
</g>
<g>
</g>
<g>
</g>
<g>
</g>
<g>
</g>
<g>
</g>
<g>
</g>
</svg>
