<?xml version="1.0" encoding="iso-8859-1"?>
<!-- Generator: Adobe Illustrator 16.0.0, SVG Export Plug-In . SVG Version: 6.00 Build 0)  -->
<!DOCTYPE svg PUBLIC "-//W3C//DTD SVG 1.1//EN" "http://www.w3.org/Graphics/SVG/1.1/DTD/svg11.dtd">
<svg version="1.1" id="Capa_1" xmlns="http://www.w3.org/2000/svg" xmlns:xlink="http://www.w3.org/1999/xlink" x="0px" y="0px"
	 width="291.755px" height="291.755px" viewBox="0 0 291.755 291.755" style="enable-background:new 0 0 291.755 291.755;"
	 xml:space="preserve">
<g>
	<path d="M273.494,199.104h-18.242v-73.559h18.242c10.089,0,18.261,8.16,18.261,18.245v37.617
		C291.755,191.467,283.589,199.104,273.494,199.104L273.494,199.104z"/>
	<path d="M255.816,48.324h-19.371V11.262h19.371c10.076,0,18.242,7.059,18.242,17.138v2.852
		C274.065,41.325,265.893,48.324,255.816,48.324L255.816,48.324z"/>
	<path d="M256.009,96.365c0,10.082-8.167,17.639-18.249,17.639H18.258C8.173,114.004,0,106.447,0,96.365V78.114
		c0-10.07,8.173-18.249,18.258-18.249H237.76c10.082,0,18.249,8.179,18.249,18.249V96.365L256.009,96.365z"/>
	<polygon points="78.197,11.262 224.903,11.262 224.903,48.324 78.197,48.324 	"/>
	<path d="M30.91,31.252V28.4c0-10.085,8.172-17.138,18.258-17.138h17.684v37.062H49.167C39.082,48.324,30.91,41.325,30.91,31.252
		L30.91,31.252z"/>
	<path d="M15.465,280.493c-4.833,0-8.749-8.257-8.749-18.446v-31.832c0-10.189,3.916-18.446,8.749-18.446h8.755v68.725
		C24.214,280.493,20.299,280.493,15.465,280.493z"/>
	<path d="M30.91,181.408v-37.617c0-10.085,8.172-17.69,18.258-17.69h17.966v73.003H49.167
		C39.082,199.104,30.91,191.467,30.91,181.408L30.91,181.408z"/>
	<polygon points="237.201,280.493 36.5,280.493 36.5,211.769 237.201,211.769 	"/>
	<polygon points="77.783,125.546 243.435,125.546 243.435,199.104 77.783,199.104 	"/>
	<path d="M257.87,280.493h-8.562v-68.725c0,0,3.83,0,8.562,0c4.726,0,8.557,8.257,8.557,18.446v31.832
		C266.433,272.236,262.596,280.493,257.87,280.493z"/>
</g>
<g>
</g>
<g>
</g>
<g>
</g>
<g>
</g>
<g>
</g>
<g>
</g>
<g>
</g>
<g>
</g>
<g>
</g>
<g>
</g>
<g>
</g>
<g>
</g>
<g>
</g>
<g>
</g>
<g>
</g>
</svg>
