<svg height="512" viewBox="0 0 64 64" width="512" xmlns="http://www.w3.org/2000/svg" xmlns:xlink="http://www.w3.org/1999/xlink"><linearGradient id="New_Gradient_Swatch_1" gradientUnits="userSpaceOnUse" x1="30" x2="30" y1="-.647" y2="70.95"><stop offset="0" stop-color="#fff33b"/><stop offset=".014" stop-color="#fee72e"/><stop offset=".042" stop-color="#fed51b"/><stop offset=".07" stop-color="#fdca10"/><stop offset=".1" stop-color="#fdc70c"/><stop offset=".4" stop-color="#f3903f"/><stop offset=".8" stop-color="#ed683c"/><stop offset="1" stop-color="#e93e3a"/></linearGradient><linearGradient id="New_Gradient_Swatch_1-2" x1="51.985" x2="51.985" xlink:href="#New_Gradient_Swatch_1" y1="-.647" y2="70.95"/><linearGradient id="New_Gradient_Swatch_1-3" x1="19" x2="19" xlink:href="#New_Gradient_Swatch_1" y1="-.647" y2="70.95"/><linearGradient id="New_Gradient_Swatch_1-5" x1="13" x2="13" xlink:href="#New_Gradient_Swatch_1" y1="-.647" y2="70.95"/><linearGradient id="New_Gradient_Swatch_1-9" x1="42" x2="42" xlink:href="#New_Gradient_Swatch_1" y1="-.647" y2="70.95"/><linearGradient id="New_Gradient_Swatch_1-10" x1="54" x2="54" xlink:href="#New_Gradient_Swatch_1" y1="-.647" y2="70.95"/><g id="Analysis_Report" data-name="Analysis Report"><path d="m58 24a1 1 0 0 0 -1-1h-17v-16a1 1 0 0 0 -1-1 18.589 18.589 0 0 0 -3 .26v-3.26a1 1 0 0 0 -1-1h-24a1.033 1.033 0 0 0 -.71.29l-8 8a1.033 1.033 0 0 0 -.29.71v50a1 1 0 0 0 1 1h32a1 1 0 0 0 1-1v-17.26a18.589 18.589 0 0 0 3 .26 19.017 19.017 0 0 0 19-19c0-.27-.01-.54-.02-.81a1.108 1.108 0 0 0 .02-.19zm-20-15.97v15.56l-12.16 12.16a16.991 16.991 0 0 1 12.16-27.72zm-28-2.62v4.59h-4.59zm24 54.59h-30v-48h7a1 1 0 0 0 1-1v-7h22v2.69a18.973 18.973 0 0 0 0 36.62zm5-18a16.928 16.928 0 0 1 -11.8-4.79l12.21-12.21h16.59a17.024 17.024 0 0 1 -17 17z" fill="url(#New_Gradient_Swatch_1)"/><path d="m43 21h18v-.006a.993.993 0 0 0 .969-1.048 18.983 18.983 0 0 0 -18.969-17.946 1 1 0 0 0 -1 1v17a1 1 0 0 0 1 1zm16.882-2h-15.882v-14.971a16.984 16.984 0 0 1 15.882 14.971z" fill="url(#New_Gradient_Swatch_1-2)"/><path d="m19 40a9 9 0 1 0 9 9 9.014 9.014 0 0 0 -9-9zm0 16a7 7 0 1 1 7-7 7.008 7.008 0 0 1 -7 7z" fill="url(#New_Gradient_Swatch_1-3)"/><path d="m22 51a3.01 3.01 0 0 1 -2 2.82v1.18h-2v-1.18a3.01 3.01 0 0 1 -2-2.82h2a1 1 0 1 0 1-1 3 3 0 0 1 -1-5.82v-1.18h2v1.18a3.01 3.01 0 0 1 2 2.82h-2a1 1 0 1 0 -1 1 3.009 3.009 0 0 1 3 3z" fill="url(#New_Gradient_Swatch_1-3)"/><g fill="url(#New_Gradient_Swatch_1-5)"><path d="m8 16h10v2h-10z"/><path d="m8 22h10v2h-10z"/><path d="m8 28h10v2h-10z"/><path d="m8 34h10v2h-10z"/></g><path d="m40 48h4v2h-4z" fill="url(#New_Gradient_Swatch_1-9)"/><path d="m46 48h16v2h-16z" fill="url(#New_Gradient_Swatch_1-10)"/><path d="m40 54h4v2h-4z" fill="url(#New_Gradient_Swatch_1-9)"/><path d="m46 54h16v2h-16z" fill="url(#New_Gradient_Swatch_1-10)"/><path d="m40 60h4v2h-4z" fill="url(#New_Gradient_Swatch_1-9)"/><path d="m46 60h16v2h-16z" fill="url(#New_Gradient_Swatch_1-10)"/></g></svg>