<?xml version="1.0" encoding="iso-8859-1"?>
<!-- Generator: Adobe Illustrator 19.0.0, SVG Export Plug-In . SVG Version: 6.00 Build 0)  -->
<svg version="1.1" id="Layer_1" xmlns="http://www.w3.org/2000/svg" xmlns:xlink="http://www.w3.org/1999/xlink" x="0px" y="0px"
	 viewBox="0 0 512 512" style="enable-background:new 0 0 512 512;" xml:space="preserve">
<g>
	<g>
		<path d="M430.822,145.405c-3.949-6.062-7.68-11.788-9.395-17.069c-1.844-5.678-2.236-12.753-2.653-20.243
			c-0.684-12.307-1.458-26.255-9.536-37.357c-8.154-11.205-21.242-16.249-32.788-20.7c-6.944-2.676-13.503-5.204-18.231-8.645
			c-4.626-3.367-8.992-8.77-13.615-14.488C336.776,17.217,327.902,6.239,314.54,1.9c-12.837-4.168-26.224-0.627-38.033,2.497
			c-7.374,1.951-14.338,3.794-20.509,3.794c-6.17,0-13.135-1.843-20.508-3.794c-11.81-3.124-25.195-6.666-38.035-2.496
			c-13.361,4.339-22.235,15.317-30.062,25.003c-4.622,5.72-8.989,11.122-13.615,14.488c-4.729,3.441-11.287,5.969-18.231,8.645
			c-11.547,4.451-24.635,9.494-32.788,20.7c-8.079,11.1-8.854,25.05-9.537,37.357c-0.416,7.491-0.809,14.566-2.652,20.243
			c-1.714,5.281-5.446,11.007-9.395,17.069c-6.838,10.495-14.588,22.391-14.588,36.682s7.75,26.187,14.588,36.682
			c3.949,6.062,7.68,11.788,9.395,17.069c1.844,5.677,2.236,12.753,2.653,20.243c0.684,12.307,1.458,26.255,9.536,37.357
			c7.832,10.763,20.213,15.84,31.411,20.168v154.065c0,3.678,1.825,7.117,4.872,9.178c1.861,1.259,4.028,1.904,6.212,1.904
			c1.392,0,2.791-0.263,4.119-0.795l51.22-20.517l44.401,17.735v25.74c0,3.678,1.825,7.117,4.872,9.178
			c3.047,2.06,6.917,2.476,10.332,1.109l51.214-20.515l51.214,20.515c1.33,0.532,2.727,0.795,4.119,0.795
			c2.184,0,4.352-0.645,6.212-1.904c3.047-2.061,4.872-5.5,4.872-9.178V313.605c11.199-4.328,23.579-9.404,31.411-20.168
			c8.079-11.1,8.854-25.049,9.538-37.357c0.416-7.491,0.809-14.566,2.652-20.243c1.714-5.281,5.446-11.007,9.396-17.069
			c6.837-10.495,14.588-22.39,14.588-36.682C445.411,167.796,437.66,155.9,430.822,145.405z M244.994,451.314l-40.298-16.099
			c-1.32-0.528-2.715-0.79-4.11-0.79c-1.399,0-2.798,0.265-4.12,0.795l-40.132,16.075V324.882c0.181,0.162,0.362,0.319,0.543,0.485
			c0.187,0.173,0.375,0.345,0.561,0.524c0.378,0.362,0.755,0.737,1.132,1.12c0.142,0.144,0.284,0.283,0.426,0.429
			c0.513,0.532,1.025,1.081,1.536,1.646c0.124,0.137,0.249,0.281,0.373,0.421c0.397,0.444,0.795,0.894,1.193,1.355
			c0.19,0.219,0.38,0.443,0.57,0.667c0.34,0.4,0.682,0.803,1.024,1.214c0.194,0.233,0.388,0.466,0.582,0.7
			c0.376,0.454,0.753,0.913,1.13,1.378c0.143,0.176,0.286,0.35,0.43,0.526c0.516,0.636,1.035,1.277,1.558,1.924
			c5.383,6.659,11.259,13.93,18.747,19.232c1.107,0.785,2.261,1.512,3.442,2.202v14.284c0,6.121,4.962,11.082,11.082,11.082
			c6.121,0,11.082-4.962,11.082-11.082v-8.846c0.398-0.012,0.795-0.035,1.193-0.057c0.294-0.016,0.586-0.031,0.879-0.051
			c0.84-0.058,1.679-0.131,2.516-0.223c0.139-0.016,0.277-0.026,0.416-0.041c0.973-0.113,1.942-0.249,2.908-0.4
			c0.27-0.042,0.539-0.09,0.809-0.134c0.723-0.121,1.443-0.248,2.161-0.386c0.293-0.057,0.584-0.111,0.876-0.17
			c0.84-0.168,1.676-0.346,2.508-0.531c0.11-0.024,0.219-0.047,0.329-0.071c0.934-0.212,1.861-0.433,2.782-0.659
			c0.325-0.08,0.646-0.161,0.97-0.242c0.631-0.158,1.259-0.317,1.883-0.479c0.352-0.091,0.703-0.181,1.053-0.273
			c0.561-0.146,1.116-0.293,1.671-0.44c0.264-0.07,0.532-0.14,0.795-0.209c0.887-0.235,1.767-0.467,2.64-0.695
			c0.136-0.035,0.269-0.07,0.406-0.104c0.714-0.186,1.423-0.368,2.128-0.545c0.263-0.066,0.522-0.129,0.784-0.194
			c0.582-0.144,1.161-0.285,1.737-0.42c0.3-0.071,0.598-0.139,0.898-0.206c0.306-0.07,0.608-0.134,0.912-0.199V451.314z
			 M355.664,484.54l-40.134-16.074c-1.322-0.53-2.722-0.795-4.12-0.795c-1.399,0-2.798,0.265-4.12,0.795l-40.132,16.075v-16.87
			V357.447c0.134,0.03,0.268,0.058,0.403,0.089c1.339,0.3,2.693,0.625,4.071,0.973c0.199,0.051,0.401,0.103,0.602,0.154
			c1.409,0.36,2.829,0.734,4.272,1.115c7.487,1.98,15.608,4.122,23.822,4.367v44.308c0,6.121,4.962,11.082,11.082,11.082
			c6.121,0,11.082-4.962,11.082-11.082v-49.793c9.133-5.357,15.951-13.767,22.112-21.388c0.516-0.638,1.027-1.271,1.538-1.898
			c0.156-0.192,0.311-0.381,0.467-0.572c0.375-0.459,0.748-0.914,1.12-1.365c0.19-0.229,0.379-0.457,0.567-0.683
			c0.347-0.416,0.693-0.826,1.038-1.231c0.186-0.219,0.373-0.439,0.56-0.655c0.406-0.47,0.81-0.928,1.215-1.38
			c0.116-0.131,0.234-0.266,0.351-0.396c0.514-0.567,1.027-1.118,1.543-1.651c0.139-0.144,0.277-0.278,0.417-0.42
			c0.38-0.387,0.76-0.765,1.141-1.13c0.185-0.177,0.37-0.348,0.556-0.52c0.182-0.168,0.363-0.326,0.546-0.489V484.54z
			 M412.252,206.67c-4.565,7.005-9.284,14.249-11.906,22.324c-2.733,8.417-3.225,17.283-3.702,25.859
			c-0.564,10.146-1.096,19.729-5.328,25.544c-4.307,5.918-13.309,9.388-22.839,13.061c-2.22,0.856-4.458,1.724-6.688,2.637
			c-0.583,0.238-1.171,0.482-1.771,0.736c-0.331,0.14-0.662,0.281-0.991,0.424c-0.651,0.281-1.307,0.574-1.969,0.874
			c-0.237,0.107-0.475,0.213-0.713,0.322c-0.856,0.397-1.717,0.813-2.58,1.248c-0.257,0.13-0.51,0.267-0.766,0.399
			c-0.612,0.317-1.222,0.643-1.833,0.981c-0.322,0.178-0.643,0.362-0.963,0.546c-0.573,0.33-1.14,0.673-1.707,1.024
			c-0.286,0.177-0.574,0.351-0.857,0.534c-0.832,0.536-1.658,1.091-2.465,1.679c-6.986,5.085-12.49,11.892-17.81,18.477
			c-2.424,2.998-4.797,5.935-7.19,8.554c-3.991,4.368-8.039,7.857-12.48,9.299c-2.902,0.942-6.29,1.007-9.997,0.567
			c-4.767-0.565-10.059-1.966-15.523-3.41c-5.24-1.386-10.59-2.801-16.066-3.672c-0.003-0.001-0.008-0.001-0.011-0.002
			c-0.905-0.144-1.816-0.263-2.728-0.375c-0.196-0.024-0.389-0.058-0.585-0.08c-0.794-0.09-1.591-0.15-2.391-0.211
			c-0.319-0.024-0.635-0.063-0.954-0.083c-0.724-0.044-1.453-0.053-2.181-0.07c-0.286-0.007-0.571-0.026-0.858-0.028
			c-0.041-0.001-0.08-0.008-0.121-0.008c-0.094-0.001-0.198-0.003-0.283-0.003c-9.052,0-17.757,2.303-26.178,4.531
			c-3.035,0.802-6.018,1.593-8.887,2.232c-4.016,0.895-7.81,1.498-11.213,1.437c-1.945-0.035-3.761-0.287-5.42-0.826
			c-6.216-2.018-11.666-8.052-17.261-14.886c-0.799-0.976-1.601-1.968-2.409-2.968c-0.665-0.823-1.333-1.649-2.007-2.476
			c-1.949-2.392-3.946-4.778-6.048-7.073c-0.802-0.877-1.617-1.741-2.454-2.584c-2.271-2.289-4.682-4.439-7.303-6.345
			c-0.808-0.587-1.632-1.142-2.465-1.679c-0.283-0.183-0.571-0.357-0.857-0.534c-0.566-0.351-1.134-0.694-1.707-1.024
			c-0.32-0.184-0.639-0.367-0.963-0.546c-0.611-0.338-1.22-0.664-1.833-0.981c-0.256-0.133-0.509-0.269-0.766-0.399
			c-0.863-0.436-1.723-0.851-2.58-1.248c-0.236-0.11-0.475-0.214-0.713-0.322c-0.662-0.301-1.319-0.594-1.969-0.874
			c-0.33-0.143-0.661-0.285-0.991-0.424c-0.6-0.253-1.188-0.498-1.771-0.736c-2.231-0.912-4.47-1.781-6.688-2.637
			c-9.531-3.673-18.532-7.143-22.839-13.061c-4.231-5.815-4.764-15.398-5.327-25.543c-0.477-8.574-0.969-17.441-3.701-25.859
			c-2.622-8.076-7.341-15.319-11.906-22.324c-5.654-8.679-10.994-16.874-10.994-24.583c0-7.709,5.339-15.904,10.994-24.583
			c4.565-7.005,9.284-14.249,11.906-22.323c2.733-8.417,3.225-17.284,3.701-25.859c0.564-10.146,1.096-19.729,5.328-25.544
			c4.307-5.917,13.309-9.387,22.839-13.061c7.974-3.073,16.219-6.252,23.302-11.406c6.986-5.085,12.49-11.893,17.811-18.477
			c6.462-7.995,12.565-15.547,19.67-17.854c1.795-0.583,3.775-0.83,5.903-0.83c5.734,0,12.533,1.799,19.618,3.673
			c8.419,2.228,17.126,4.531,26.178,4.531c9.052,0,17.758-2.303,26.178-4.531c9.714-2.569,18.887-4.997,25.521-2.843
			c7.104,2.306,13.207,9.859,19.67,17.854c5.322,6.584,10.824,13.392,17.81,18.477c7.083,5.154,15.328,8.333,23.302,11.406
			c9.531,3.674,18.532,7.144,22.839,13.061c4.231,5.815,4.764,15.398,5.327,25.543c0.477,8.574,0.969,17.441,3.701,25.859
			c2.622,8.075,7.341,15.319,11.905,22.324c5.654,8.679,10.994,16.875,10.994,24.583
			C423.246,189.796,417.905,197.992,412.252,206.67z"/>
	</g>
</g>
<g>
	<g>
		<path d="M255.998,47.681c-74.112,0-134.407,60.295-134.407,134.407s60.295,134.407,134.407,134.407S390.405,256.2,390.405,182.088
			S330.111,47.681,255.998,47.681z M255.998,294.33c-61.891,0-112.242-50.352-112.242-112.242S194.107,69.845,255.998,69.845
			s112.242,50.352,112.242,112.243S317.889,294.33,255.998,294.33z"/>
	</g>
</g>
<g>
	<g>
		<path d="M339.544,162.27c-1.127-3.468-3.888-6.16-7.383-7.198l-42.115-12.516l-24.92-36.186c-2.068-3.002-5.481-4.796-9.127-4.796
			c-3.646,0-7.059,1.794-9.127,4.796l-24.92,36.185l-42.115,12.519c-3.495,1.04-6.256,3.73-7.383,7.198
			c-1.127,3.468-0.475,7.268,1.741,10.163l26.714,34.883l-1.108,43.923c-0.092,3.645,1.615,7.103,4.565,9.246
			c2.949,2.143,6.766,2.699,10.204,1.484l41.43-14.628l41.43,14.628c1.2,0.423,2.448,0.632,3.688,0.632
			c2.31,0,4.596-0.721,6.515-2.117c2.95-2.143,4.657-5.601,4.565-9.246l-1.108-43.923l26.714-34.883
			C340.019,169.538,340.671,165.738,339.544,162.27z M291.112,196.947c-1.539,2.01-2.344,4.486-2.281,7.018l0.801,31.747
			l-29.946-10.574c-1.194-0.421-2.441-0.632-3.689-0.632c-1.248,0-2.496,0.211-3.689,0.632l-29.946,10.574l0.801-31.747
			c0.064-2.531-0.741-5.008-2.281-7.018l-19.309-25.212l30.44-9.049c2.427-0.721,4.534-2.252,5.97-4.338l18.012-26.154
			l18.012,26.154c1.436,2.085,3.543,3.616,5.97,4.338l30.44,9.049L291.112,196.947z"/>
	</g>
</g>
<g>
	<g>
		<path d="M319.246,437.191c-0.51-0.51-1.075-0.975-1.685-1.385c-0.598-0.399-1.241-0.743-1.917-1.02
			c-0.665-0.277-1.363-0.488-2.072-0.632c-1.419-0.288-2.893-0.288-4.322,0c-0.709,0.144-1.407,0.355-2.072,0.632
			c-0.676,0.277-1.319,0.621-1.917,1.02c-0.609,0.41-1.175,0.875-1.685,1.385c-0.51,0.51-0.975,1.075-1.374,1.685
			c-0.399,0.599-0.743,1.241-1.02,1.906c-0.277,0.676-0.499,1.374-0.632,2.083c-0.144,0.709-0.222,1.441-0.222,2.161
			c0,0.72,0.078,1.452,0.222,2.161c0.133,0.709,0.355,1.407,0.632,2.072c0.277,0.676,0.621,1.319,1.02,1.917
			c0.399,0.61,0.864,1.175,1.374,1.685c0.51,0.51,1.075,0.975,1.685,1.374c0.598,0.399,1.241,0.743,1.917,1.02
			c0.665,0.277,1.363,0.499,2.072,0.632c0.709,0.144,1.441,0.222,2.161,0.222c0.72,0,1.452-0.078,2.161-0.222
			c0.709-0.133,1.407-0.355,2.072-0.632c0.676-0.277,1.319-0.621,1.917-1.02c0.609-0.399,1.175-0.864,1.685-1.374
			c0.51-0.51,0.975-1.075,1.374-1.685c0.399-0.598,0.743-1.241,1.02-1.917c0.277-0.665,0.499-1.363,0.632-2.072
			c0.144-0.709,0.222-1.441,0.222-2.161C322.493,442.112,321.307,439.253,319.246,437.191z"/>
	</g>
</g>
<g>
	<g>
		<path d="M211.525,407.401c-0.133-0.708-0.355-1.406-0.632-2.083c-0.277-0.665-0.621-1.308-1.02-1.906
			c-0.399-0.609-0.864-1.175-1.374-1.685c-2.571-2.571-6.395-3.757-9.996-3.037c-0.709,0.144-1.407,0.366-2.072,0.643
			c-0.676,0.277-1.319,0.621-1.917,1.02c-0.61,0.399-1.175,0.864-1.685,1.374c-0.51,0.51-0.975,1.075-1.374,1.685
			c-0.399,0.598-0.742,1.241-1.02,1.906c-0.277,0.676-0.499,1.374-0.632,2.083c-0.144,0.709-0.222,1.441-0.222,2.161
			s0.078,1.452,0.222,2.161c0.133,0.709,0.355,1.407,0.632,2.072c0.277,0.676,0.621,1.319,1.02,1.917
			c0.399,0.609,0.864,1.175,1.374,1.685c0.51,0.51,1.075,0.975,1.685,1.374c0.598,0.399,1.241,0.743,1.917,1.02
			c0.665,0.277,1.363,0.499,2.072,0.632c0.709,0.144,1.441,0.222,2.161,0.222c2.915,0,5.774-1.186,7.835-3.247
			c0.51-0.51,0.975-1.075,1.374-1.685c0.399-0.598,0.743-1.241,1.02-1.917c0.277-0.665,0.499-1.363,0.632-2.072
			c0.144-0.709,0.222-1.441,0.222-2.161C211.746,408.841,211.669,408.11,211.525,407.401z"/>
	</g>
</g>
<g>
</g>
<g>
</g>
<g>
</g>
<g>
</g>
<g>
</g>
<g>
</g>
<g>
</g>
<g>
</g>
<g>
</g>
<g>
</g>
<g>
</g>
<g>
</g>
<g>
</g>
<g>
</g>
<g>
</g>
</svg>
