<svg id="Layer_1" enable-background="new 0 0 512 512" height="512" viewBox="0 0 512 512" width="512" xmlns="http://www.w3.org/2000/svg"><g><circle cx="256" cy="48" fill="#f3d4b7" r="32"/><path d="m288 432c5.02 6.69 8 15 8 24 0 22.09-17.91 40-40 40s-40-17.91-40-40c0-9 2.98-17.31 8-24z" fill="#f3d4b7"/><path d="m432 368v64h-352v-64c26.51 0 48-21.49 48-48v-110.61c0-70.741 56.801-129.141 127.541-129.389 70.901-.249 128.459 57.156 128.459 127.999v112c0 26.51 21.49 48 48 48z" fill="#f8e9d2"/><path d="m288 48c0 17.67-14.33 32-32 32-4.24 0-8.29-.82-12-2.32 11.72-4.75 20-16.25 20-29.68s-8.28-24.93-20-29.68c3.71-1.5 7.76-2.32 12-2.32 17.67 0 32 14.33 32 32z" fill="#e1c3a7"/><path d="m432 368v64h-40v-35.238c0-2.598-1.993-4.733-4.58-4.978-24.362-2.306-43.42-22.819-43.42-47.784v-112c0-70.84-57.56-128.25-128.46-128-15.32.05-29.99 2.83-43.57 7.88 22.34-19.72 51.53-31.77 83.57-31.88 70.9-.25 128.46 57.16 128.46 128v112c0 26.51 21.49 48 48 48z" fill="#e4d5c1"/><path d="m296 456c0 22.09-17.91 40-40 40-5.69 0-11.1-1.19-16-3.34 14.13-6.17 24-20.26 24-36.66 0-9-2.98-17.31-8-24h32c5.02 6.69 8 15 8 24z" fill="#e1c3a7"/><path d="m432 352c-17.645 0-32-14.355-32-32v-112c0-38.558-15.043-74.783-42.357-102.002-16.839-16.78-37.087-28.878-59.176-35.662 3.526-6.676 5.533-14.274 5.533-22.336 0-26.467-21.533-48-48-48s-48 21.533-48 48c0 8.108 2.028 15.749 5.593 22.453-58.745 18.349-101.593 73.757-101.593 138.937v110.61c0 17.645-14.355 32-32 32-8.836 0-16 7.164-16 16v64c0 8.836 7.164 16 16 16h120.575c-.374 2.629-.575 5.299-.575 8 0 30.878 25.122 56 56 56s56-25.122 56-56c0-2.701-.2-5.371-.575-8h120.575c8.836 0 16-7.164 16-16v-64c0-8.836-7.164-16-16-16zm-176-320c8.822 0 16 7.178 16 16s-7.178 16-16 16-16-7.178-16-16 7.178-16 16-16zm24 424c0 13.234-10.766 24-24 24s-24-10.766-24-24c0-2.765.462-5.458 1.361-8h45.277c.9 2.542 1.362 5.235 1.362 8zm136-40h-128-64-128v-34.025c27.573-7.122 48-32.208 48-61.975v-110.61c0-62.307 50.062-113.173 111.597-113.389.136 0 .27-.001.405-.001 29.844 0 57.905 11.591 79.053 32.665 21.245 21.17 32.945 49.346 32.945 79.335v112c0 29.767 20.427 54.853 48 61.975z"/><path d="m192 224c-8.836 0-16-7.164-16-16 0-44.112 35.888-80 80-80 8.836 0 16 7.164 16 16s-7.164 16-16 16c-26.467 0-48 21.533-48 48 0 8.836-7.164 16-16 16z"/></g></svg>