<svg id="Capa_1" enable-background="new 0 0 512 512" height="512" viewBox="0 0 512 512" width="512" xmlns="http://www.w3.org/2000/svg"><g><path d="m458 57h-413c-24.813 0-45 20.187-45 45v276c0 24.813 20.187 45 45 45h443c8.284 0 15-6.716 15-15v-306c0-24.813-20.187-45-45-45z" fill="#f5f0eb"/><path d="m458 57h-202v366h232c8.284 0 15-6.716 15-15v-306c0-24.813-20.187-45-45-45z" fill="#dad0cb"/><g fill="#27d8f6"><path d="m104 215h-24c-8.284 0-15-6.716-15-15s6.716-15 15-15h24c8.284 0 15 6.716 15 15s-6.716 15-15 15z"/><path d="m192 215h-24c-8.284 0-15-6.716-15-15s6.716-15 15-15h24c8.284 0 15 6.716 15 15s-6.716 15-15 15z"/><path d="m192 279h-24c-8.284 0-15-6.716-15-15s6.716-15 15-15h24c8.284 0 15 6.716 15 15s-6.716 15-15 15z"/><path d="m104 279h-24c-8.284 0-15-6.716-15-15s6.716-15 15-15h24c8.284 0 15 6.716 15 15s-6.716 15-15 15z"/><path d="m104 343h-24c-8.284 0-15-6.716-15-15s6.716-15 15-15h24c8.284 0 15 6.716 15 15s-6.716 15-15 15z"/></g><path d="m192 343h-24c-8.284 0-15-6.716-15-15s6.716-15 15-15h24c8.284 0 15 6.716 15 15s-6.716 15-15 15z" fill="#ff712f"/><path d="m384 120c-8.284 0-15-6.716-15-15v-65c0-8.284 6.716-15 15-15s15 6.716 15 15v65c0 8.284-6.716 15-15 15z" fill="#404040"/><path d="m256 120c-8.284 0-15-6.716-15-15v-65c0-8.284 6.716-15 15-15s15 6.716 15 15v65c0 8.284-6.716 15-15 15z" fill="#6c6c6c"/><path d="m271 105v-65c0-8.284-6.716-15-15-15v95c8.284 0 15-6.716 15-15z" fill="#404040"/><path d="m128 120c-8.284 0-15-6.716-15-15v-65c0-8.284 6.716-15 15-15s15 6.716 15 15v65c0 8.284-6.716 15-15 15z" fill="#6c6c6c"/><path d="m512 362c0 68.92-56.08 125-125 125s-125-56.08-125-125 56.08-125 125-125l22.56 34.29c18.1 27.51 41.67 51 69.23 69.02z" fill="#3aaaff"/><path d="m409.56 271.29-22.475-34.161v249.87c68.881-.046 124.915-56.107 124.915-124.999l-33.21-21.69c-27.56-18.02-51.13-41.51-69.23-69.02z" fill="#0095ff"/><path d="m512 362c0-68.925-56.075-125-125-125v125z" fill="#fdbf00"/></g></svg>