<?xml version="1.0" encoding="iso-8859-1"?>
<!-- Generator: Adobe Illustrator 19.0.0, SVG Export Plug-In . SVG Version: 6.00 Build 0)  -->
<svg version="1.1" id="Capa_1" xmlns="http://www.w3.org/2000/svg" xmlns:xlink="http://www.w3.org/1999/xlink" x="0px" y="0px"
	 viewBox="0 0 472 472" style="enable-background:new 0 0 472 472;" xml:space="preserve">
<g>
	<g>
		<path d="M236,0C105.868,0,0,105.868,0,236c0,56.992,20.312,109.332,54.068,150.16c0.08,0.12,0.096,0.268,0.188,0.38
			c24.376,29.396,54.996,51.932,89.1,66.492c0.396,0.172,0.788,0.352,1.188,0.52c2.756,1.16,5.544,2.244,8.344,3.296
			c1.108,0.42,2.212,0.84,3.328,1.244c2.412,0.864,4.84,1.684,7.284,2.468c1.568,0.508,3.14,1,4.72,1.472
			c2.164,0.648,4.332,1.268,6.516,1.856c1.916,0.516,3.848,0.996,5.784,1.464c1.964,0.472,3.924,0.944,5.9,1.364
			c2.208,0.476,4.44,0.892,6.672,1.304c1.788,0.328,3.572,0.672,5.372,0.96c2.484,0.4,4.992,0.72,7.504,1.04
			c1.604,0.204,3.204,0.44,4.816,0.612c2.84,0.304,5.704,0.512,8.572,0.712c1.324,0.092,2.636,0.232,3.964,0.304
			c4.2,0.224,8.424,0.352,12.68,0.352s8.48-0.128,12.68-0.348c1.328-0.072,2.64-0.208,3.964-0.304
			c2.868-0.2,5.732-0.408,8.572-0.712c1.612-0.172,3.212-0.408,4.816-0.612c2.508-0.32,5.016-0.644,7.504-1.04
			c1.8-0.288,3.584-0.632,5.372-0.96c2.232-0.412,4.46-0.828,6.668-1.304c1.976-0.424,3.94-0.892,5.904-1.364
			c1.936-0.468,3.864-0.948,5.784-1.464c2.184-0.584,4.352-1.208,6.516-1.856c1.58-0.476,3.152-0.968,4.72-1.472
			c2.444-0.788,4.872-1.604,7.284-2.468c1.116-0.404,2.22-0.824,3.328-1.244c2.8-1.052,5.588-2.136,8.344-3.296
			c0.4-0.168,0.792-0.348,1.188-0.52c34.104-14.56,64.724-37.096,89.1-66.492c0.092-0.112,0.108-0.26,0.188-0.38
			C451.688,345.332,472,292.992,472,236C472,105.868,366.132,0,236,0z M325.728,445.584c-0.548,0.232-1.088,0.48-1.636,0.708
			c-2.644,1.112-5.32,2.152-8.012,3.164c-1.076,0.404-2.152,0.808-3.236,1.196c-2.356,0.844-4.732,1.644-7.12,2.412
			c-1.48,0.476-2.964,0.932-4.452,1.376c-2.12,0.636-4.248,1.244-6.392,1.82c-1.82,0.484-3.648,0.932-5.48,1.372
			c-1.916,0.46-3.832,0.92-5.764,1.332c-2.112,0.448-4.236,0.84-6.364,1.232c-1.732,0.32-3.46,0.652-5.208,0.932
			c-2.384,0.38-4.784,0.684-7.184,0.988c-1.552,0.196-3.096,0.428-4.656,0.592c-2.732,0.288-5.48,0.484-8.228,0.676
			c-1.272,0.088-2.532,0.224-3.808,0.292C244.136,463.88,240.076,464,236,464s-8.136-0.12-12.18-0.332
			c-1.276-0.068-2.536-0.2-3.808-0.292c-2.748-0.192-5.5-0.388-8.228-0.676c-1.564-0.164-3.104-0.396-4.656-0.592
			c-2.4-0.304-4.8-0.608-7.184-0.988c-1.748-0.28-3.472-0.616-5.208-0.932c-2.128-0.388-4.252-0.78-6.364-1.232
			c-1.932-0.412-3.848-0.872-5.764-1.332c-1.832-0.44-3.66-0.888-5.48-1.372c-2.144-0.572-4.276-1.184-6.392-1.82
			c-1.488-0.444-2.972-0.9-4.452-1.376c-2.388-0.768-4.764-1.568-7.12-2.412c-1.084-0.388-2.156-0.792-3.236-1.196
			c-2.692-1.012-5.372-2.052-8.012-3.164c-0.548-0.228-1.092-0.476-1.636-0.708c-32.868-14.124-61.748-35.768-84.516-62.748
			c15.464-59.8,61.376-108,120.516-126.508c0.276,0.18,0.572,0.332,0.852,0.508c1.608,1.004,3.24,1.98,4.908,2.892
			c0.3,0.164,0.604,0.324,0.904,0.484c1.64,0.88,3.312,1.704,5.004,2.488c0.568,0.264,1.14,0.524,1.716,0.776
			c1.632,0.72,3.28,1.404,4.956,2.04c0.288,0.108,0.572,0.232,0.86,0.34c1.932,0.712,3.896,1.352,5.88,1.944
			c0.532,0.16,1.068,0.304,1.6,0.456c1.64,0.46,3.3,0.884,4.976,1.26c0.432,0.096,0.86,0.208,1.296,0.3
			c2.044,0.432,4.112,0.804,6.2,1.112c0.436,0.064,0.876,0.108,1.312,0.168c1.696,0.228,3.404,0.408,5.128,0.548
			c0.58,0.048,1.156,0.096,1.736,0.132c2.112,0.14,4.24,0.232,6.392,0.232s4.28-0.092,6.396-0.228
			c0.58-0.036,1.156-0.084,1.736-0.132c1.72-0.14,3.432-0.32,5.128-0.548c0.436-0.06,0.876-0.104,1.312-0.168
			c2.088-0.308,4.156-0.676,6.2-1.112c0.432-0.092,0.864-0.2,1.296-0.3c1.676-0.38,3.332-0.8,4.976-1.26
			c0.536-0.152,1.068-0.296,1.6-0.456c1.984-0.596,3.948-1.232,5.88-1.944c0.288-0.108,0.572-0.228,0.86-0.34
			c1.676-0.636,3.324-1.32,4.956-2.04c0.576-0.252,1.144-0.512,1.716-0.776c1.692-0.788,3.364-1.612,5.004-2.488
			c0.3-0.16,0.604-0.32,0.904-0.484c1.668-0.916,3.3-1.888,4.908-2.892c0.28-0.176,0.576-0.324,0.856-0.504
			c59.14,18.504,105.052,66.708,120.516,126.508C387.476,409.812,358.592,431.456,325.728,445.584z M144,172
			c0-50.728,41.272-92,92-92c50.728,0,92,41.272,92,92c0,32.3-16.744,60.744-41.996,77.164c-1.32,0.86-2.66,1.68-4.016,2.468
			c-0.484,0.28-0.964,0.564-1.452,0.836c-1.668,0.928-3.36,1.808-5.076,2.624c-0.396,0.188-0.8,0.36-1.2,0.544
			c-1.472,0.676-2.956,1.308-4.46,1.904c-0.468,0.184-0.928,0.376-1.4,0.552c-1.82,0.688-3.66,1.324-5.52,1.892
			c-0.348,0.108-0.7,0.196-1.048,0.3c-1.62,0.476-3.252,0.9-4.896,1.284c-0.464,0.108-0.932,0.22-1.4,0.324
			c-1.944,0.42-3.896,0.792-5.868,1.088c-0.256,0.04-0.516,0.064-0.772,0.1c-1.748,0.248-3.508,0.436-5.272,0.58
			c-0.52,0.044-1.04,0.084-1.56,0.12c-2.012,0.132-4.032,0.22-6.064,0.22c-2.032,0-4.052-0.088-6.064-0.22
			c-0.52-0.036-1.04-0.076-1.56-0.12c-1.768-0.144-3.524-0.336-5.272-0.58c-0.256-0.036-0.516-0.06-0.772-0.1
			c-1.972-0.296-3.924-0.668-5.868-1.088c-0.468-0.1-0.932-0.216-1.4-0.324c-1.644-0.384-3.276-0.812-4.896-1.284
			c-0.348-0.104-0.7-0.192-1.048-0.3c-1.86-0.568-3.7-1.204-5.52-1.892c-0.472-0.176-0.932-0.368-1.4-0.552
			c-1.5-0.596-2.988-1.228-4.46-1.904c-0.4-0.184-0.804-0.356-1.2-0.544c-1.716-0.816-3.404-1.696-5.076-2.624
			c-0.488-0.272-0.968-0.556-1.452-0.836c-1.356-0.788-2.696-1.608-4.016-2.468C160.744,232.744,144,204.3,144,172z M416.356,375.24
			c-16.964-57.972-61.46-104.704-118.676-124.616C320.988,232.304,336,203.88,336,172c0-55.14-44.86-100-100-100s-100,44.86-100,100
			c0,31.88,15.012,60.304,38.324,78.628c-57.22,19.912-101.716,66.64-118.68,124.612C25.816,336.692,8,288.4,8,236
			C8,110.28,110.28,8,236,8s228,102.28,228,228C464,288.4,446.184,336.692,416.356,375.24z"/>
	</g>
</g>
<g>
</g>
<g>
</g>
<g>
</g>
<g>
</g>
<g>
</g>
<g>
</g>
<g>
</g>
<g>
</g>
<g>
</g>
<g>
</g>
<g>
</g>
<g>
</g>
<g>
</g>
<g>
</g>
<g>
</g>
</svg>
