<?xml version="1.0" encoding="iso-8859-1"?>
<!-- Generator: Adobe Illustrator 19.0.0, SVG Export Plug-In . SVG Version: 6.00 Build 0)  -->
<svg version="1.1" id="Capa_1" xmlns="http://www.w3.org/2000/svg" xmlns:xlink="http://www.w3.org/1999/xlink" x="0px" y="0px"
	 viewBox="0 0 512.168 512.168" style="enable-background:new 0 0 512.168 512.168;" xml:space="preserve">
<path style="fill:#CFD8DC;" d="M509.042,419.282L345.906,256.168l13.781-13.781c4.164-4.165,4.164-10.917,0-15.083l-21.867-21.909
	c19.148-92.291-40.146-182.63-132.437-201.779S22.752,43.762,3.604,136.053s40.146,182.63,132.437,201.779
	c22.87,4.745,46.471,4.745,69.341,0l21.888,21.867c4.165,4.164,10.917,4.164,15.083,0l13.803-13.781l21.333,21.333v27.584
	c0,5.891,4.776,10.667,10.667,10.667h27.584l47.083,47.083v27.584c0,5.891,4.776,10.667,10.667,10.667h27.584l18.219,18.219
	c1.999,1.994,4.707,3.114,7.531,3.115h74.667c5.891,0,10.667-4.776,10.667-10.667v-74.667
	C512.161,424.003,511.041,421.287,509.042,419.282z M117.49,170.834c-29.455,0-53.333-23.878-53.333-53.333
	s23.878-53.333,53.333-53.333s53.333,23.878,53.333,53.333S146.945,170.834,117.49,170.834z"/>
<path style="fill:#90A4AE;" d="M448.156,458.834c-2.831,0.005-5.548-1.115-7.552-3.115L291.271,306.386
	c-4.092-4.237-3.975-10.99,0.262-15.083c4.134-3.992,10.687-3.992,14.82,0l149.333,149.333c4.159,4.172,4.149,10.926-0.024,15.085
	C453.67,457.709,450.971,458.828,448.156,458.834z"/>
<path d="M448.156,458.834c-2.831,0.005-5.548-1.115-7.552-3.115L291.271,306.386c-4.092-4.237-3.975-10.99,0.262-15.083
	c4.134-3.992,10.687-3.992,14.82,0l149.333,149.333c4.159,4.172,4.149,10.926-0.024,15.085
	C453.67,457.709,450.971,458.828,448.156,458.834z"/>
<path d="M501.49,512.168h-74.667c-2.831,0.005-5.548-1.115-7.552-3.115l-18.197-18.219H373.49c-5.891,0-10.667-4.776-10.667-10.667
	v-27.584l-47.083-47.083h-27.584c-5.891,0-10.667-4.776-10.667-10.667V367.25l-21.333-21.333l-13.781,13.781
	c-4.165,4.164-10.917,4.164-15.083,0l-21.909-21.867C113.079,356.919,22.779,297.565,3.692,205.261S43.959,22.657,136.263,3.57
	s182.604,40.267,201.691,132.571c2.36,11.413,3.545,23.039,3.536,34.693c-0.035,11.616-1.271,23.198-3.691,34.56l21.888,21.888
	c4.164,4.165,4.164,10.917,0,15.083l-13.781,13.803L509.02,419.282c2.007,2.001,3.135,4.718,3.136,7.552v74.667
	C512.156,507.392,507.381,512.168,501.49,512.168z M431.239,490.834h59.584V431.25L323.271,263.698
	c-4.164-4.165-4.164-10.917,0-15.083l13.803-13.781l-18.496-18.517c-2.64-2.63-3.715-6.448-2.837-10.069
	c19.637-80.103-29.38-160.958-109.483-180.595S45.3,55.033,25.663,135.136s29.38,160.958,109.483,180.595
	c23.358,5.726,47.754,5.726,71.112,0c3.621-0.848,7.424,0.223,10.069,2.837l18.496,18.496l13.781-13.781
	c4.165-4.164,10.917-4.164,15.083,0l32,32c2.007,2.001,3.135,4.718,3.136,7.552v21.333h21.333c2.831-0.005,5.548,1.115,7.552,3.115
	l53.333,53.333c1.999,2.004,3.12,4.721,3.115,7.552v21.333h21.333c2.831-0.005,5.548,1.115,7.552,3.115L431.239,490.834z"/>
<path d="M117.49,170.834c-29.455,0-53.333-23.878-53.333-53.333s23.878-53.333,53.333-53.333s53.333,23.878,53.333,53.333
	S146.945,170.834,117.49,170.834z M117.49,85.501c-17.673,0-32,14.327-32,32s14.327,32,32,32s32-14.327,32-32
	S135.163,85.501,117.49,85.501z"/>
<g>
</g>
<g>
</g>
<g>
</g>
<g>
</g>
<g>
</g>
<g>
</g>
<g>
</g>
<g>
</g>
<g>
</g>
<g>
</g>
<g>
</g>
<g>
</g>
<g>
</g>
<g>
</g>
<g>
</g>
</svg>
